<svg xmlns="http://www.w3.org/2000/svg" viewBox="0 0 172.59 150.28">
    <path d="M85.62 150.28C56.92 100.15 28.73 50.93 0 .76a56.85 56.85 0 0 1 6-.69C21.9 0 37.86.14 53.81 0c3.84 0 6.32 1.1 8.33 4.59q25.83 45 52.05 89.7c2.3 3.92 2.47 6.85-.08 10.8-8.54 13.22-16.65 26.73-25 40.11-.85 1.45-1.91 2.8-3.49 5.08z"
          fill="#1479e3"/>
    <path d="M140 54.16c-.13-2.23-.34-4.46-.36-6.7-.05-6.7-.43-13.43.09-20.09.47-5.95-1.91-9.29-7-12A145.42 145.42 0 0 1 110.86.87h61.73l-31.1 53.66z"
          fill="#5ea3d8"/>
</svg>
